# xmcd CD database file
#
# Track frame offsets:
#	150
#	15764
#	31283
#	44368
#	63624
#	81878
#	96296
#	112676
#	129551
#	151118
#	169097
#	183049
#	202297
#	222552
#	242518
#	262924
#	285863
#	299680
#
# Disc length: 4347 seconds
#
# Revision: 0
# Processed by: cddbd v1.5.2PL0 Copyright (c) Steve Scherf et al.
# Submitted via: CDex 1.70beta2
#
DISCID=f310f912
DTITLE=Varios - Golden Classic
DYEAR=1900
DGENRE=Salsa
TTITLE0=INTRO
TTITLE1=ROMEO and JULIETTE
TTITLE2=STAND BY ME
TTITLE3=MI VIDA SIN TI
TTITLE4=LLEVATE MI VIDA
TTITLE5=POLVO EN EL VIENTO
TTITLE6=MELODIA DESENCADENADA
TTITLE7=PLEASE DONT GO
TTITLE8=ECLIPSE TOTAL DEL CORAZON
TTITLE9=CREEP
TTITLE10=GOOD BY HORSES
TTITLE11=A CADA SUSPIRO TUYO
TTITLE12=PERDIENDO MI RELIGION
TTITLE13=RUNAWAY TRAIN
TTITLE14=DREAMS
TTITLE15=MY HEART WILL GO ON
TTITLE16=IMAGINE
TTITLE17=OTRO LADRILLO EN LA PARED
EXTD=
EXTT0=
EXTT1=
EXTT2=
EXTT3=
EXTT4=
EXTT5=
EXTT6=
EXTT7=
EXTT8=
EXTT9=
EXTT10=
EXTT11=
EXTT12=
EXTT13=
EXTT14=
EXTT15=
EXTT16=
EXTT17=
PLAYORDER=
